<svg width="149" height="32" viewBox="0 0 149 32" fill="none" xmlns="http://www.w3.org/2000/svg">
<path d="M0 8C0 3.58172 3.58172 0 8 0H24C28.4183 0 32 3.58172 32 8V24C32 28.4183 28.4183 32 24 32H8C3.58172 32 0 28.4183 0 24V8Z" fill="#2E8555"/>
<path d="M18.5 7.66667H11C10.558 7.66667 10.1341 7.84227 9.82153 8.15483C9.50897 8.46739 9.33337 8.89131 9.33337 9.33334V22.6667C9.33337 23.1087 9.50897 23.5326 9.82153 23.8452C10.1341 24.1577 10.558 24.3333 11 24.3333H21C21.4421 24.3333 21.866 24.1577 22.1786 23.8452C22.4911 23.5326 22.6667 23.1087 22.6667 22.6667V11.8333L18.5 7.66667Z" stroke="white" stroke-width="1.66667" stroke-linecap="round" stroke-linejoin="round"/>
<path d="M17.6666 7.66667V11C17.6666 11.442 17.8422 11.866 18.1548 12.1785C18.4673 12.4911 18.8913 12.6667 19.3333 12.6667H22.6666" stroke="white" stroke-width="1.66667" stroke-linecap="round" stroke-linejoin="round"/>
<path d="M14.3333 13.5H12.6666" stroke="white" stroke-width="1.66667" stroke-linecap="round" stroke-linejoin="round"/>
<path d="M19.3333 16.8333H12.6666" stroke="white" stroke-width="1.66667" stroke-linecap="round" stroke-linejoin="round"/>
<path d="M19.3333 20.1667H12.6666" stroke="white" stroke-width="1.66667" stroke-linecap="round" stroke-linejoin="round"/>
<path d="M41.584 26V9.2H44.752V16.136H50.992V9.2H54.16V26H50.992V19.016H44.752V26H41.584ZM57.334 26V9.2H68.134V12.08H60.502V16.088H67.462V18.968H60.502V23.12H68.278V26H57.334ZM73.7431 26L69.4711 9.2H72.7351L76.2871 23.96H76.6231L80.1751 9.2H83.4391L79.1671 26H73.7431ZM90.7915 26V23.216H92.9995V11.984H90.7915V9.2H97.7035C99.9595 9.2 101.672 9.776 102.84 10.928C104.024 12.064 104.616 13.76 104.616 16.016V19.184C104.616 21.44 104.024 23.144 102.84 24.296C101.672 25.432 99.9595 26 97.7035 26H90.7915ZM96.1675 23.12H97.7515C99.0315 23.12 99.9675 22.784 100.56 22.112C101.152 21.44 101.448 20.496 101.448 19.28V15.92C101.448 14.688 101.152 13.744 100.56 13.088C99.9675 12.416 99.0315 12.08 97.7515 12.08H96.1675V23.12ZM113.016 26.336C111.832 26.336 110.768 26.096 109.824 25.616C108.88 25.136 108.136 24.44 107.592 23.528C107.048 22.616 106.776 21.52 106.776 20.24V19.856C106.776 18.576 107.048 17.48 107.592 16.568C108.136 15.656 108.88 14.96 109.824 14.48C110.768 14 111.832 13.76 113.016 13.76C114.2 13.76 115.264 14 116.208 14.48C117.152 14.96 117.896 15.656 118.44 16.568C118.984 17.48 119.256 18.576 119.256 19.856V20.24C119.256 21.52 118.984 22.616 118.44 23.528C117.896 24.44 117.152 25.136 116.208 25.616C115.264 26.096 114.2 26.336 113.016 26.336ZM113.016 23.648C113.944 23.648 114.712 23.352 115.32 22.76C115.928 22.152 116.232 21.288 116.232 20.168V19.928C116.232 18.808 115.928 17.952 115.32 17.36C114.728 16.752 113.96 16.448 113.016 16.448C112.088 16.448 111.32 16.752 110.712 17.36C110.104 17.952 109.8 18.808 109.8 19.928V20.168C109.8 21.288 110.104 22.152 110.712 22.76C111.32 23.352 112.088 23.648 113.016 23.648ZM122.047 26V9.2H125.071V18.488H125.503L129.439 14.096H133.375L127.879 19.856L133.567 26H129.679L125.503 21.272H125.071V26H122.047ZM140.13 26.192C139.202 26.192 138.386 25.984 137.682 25.568C136.994 25.136 136.458 24.544 136.074 23.792C135.69 23.04 135.498 22.176 135.498 21.2V14.096H138.522V20.96C138.522 21.856 138.738 22.528 139.17 22.976C139.618 23.424 140.25 23.648 141.066 23.648C141.994 23.648 142.714 23.344 143.226 22.736C143.738 22.112 143.994 21.248 143.994 20.144V14.096H147.018V26H144.042V24.44H143.61C143.418 24.84 143.058 25.232 142.53 25.616C142.002 26 141.202 26.192 140.13 26.192Z" fill="white"/>
</svg>
